<svg width="135" height="42" viewBox="0 0 135 42" fill="none" xmlns="http://www.w3.org/2000/svg">
<rect x="18" y="18" width="117" height="24" rx="12" fill="#FADF7C"/>
<path d="M34.6361 34.12C33.8761 34.12 33.2081 33.952 32.6321 33.616C32.0561 33.28 31.6081 32.788 31.2881 32.14C30.9761 31.492 30.8201 30.712 30.8201 29.8C30.8201 28.888 30.9761 28.112 31.2881 27.472C31.6081 26.824 32.0561 26.332 32.6321 25.996C33.2081 25.66 33.8761 25.492 34.6361 25.492C35.5561 25.492 36.3161 25.724 36.9161 26.188C37.5241 26.644 37.8881 27.316 38.0081 28.204H36.7841C36.6481 27.668 36.3921 27.264 36.0161 26.992C35.6481 26.712 35.1881 26.572 34.6361 26.572C33.8361 26.572 33.2121 26.856 32.7641 27.424C32.3161 27.992 32.0921 28.784 32.0921 29.8C32.0921 30.816 32.3121 31.612 32.7521 32.188C33.2001 32.756 33.8281 33.04 34.6361 33.04C35.1881 33.04 35.6481 32.904 36.0161 32.632C36.3921 32.352 36.6481 31.94 36.7841 31.396H38.0081C37.8881 32.292 37.5241 32.972 36.9161 33.436C36.3161 33.892 35.5561 34.12 34.6361 34.12ZM41.7166 34.12C41.1806 34.12 40.6806 34.004 40.2166 33.772C39.7526 33.532 39.3806 33.168 39.1006 32.68C38.8206 32.192 38.6806 31.592 38.6806 30.88C38.6806 30.168 38.8206 29.568 39.1006 29.08C39.3806 28.592 39.7526 28.232 40.2166 28C40.6806 27.76 41.1806 27.64 41.7166 27.64C42.2606 27.64 42.7606 27.76 43.2166 28C43.6806 28.232 44.0526 28.592 44.3326 29.08C44.6206 29.568 44.7646 30.168 44.7646 30.88C44.7646 31.592 44.6206 32.192 44.3326 32.68C44.0526 33.168 43.6806 33.532 43.2166 33.772C42.7606 34.004 42.2606 34.12 41.7166 34.12ZM41.7166 33.1C42.2606 33.1 42.7126 32.912 43.0726 32.536C43.4326 32.16 43.6126 31.608 43.6126 30.88C43.6126 30.152 43.4326 29.6 43.0726 29.224C42.7126 28.848 42.2606 28.66 41.7166 28.66C41.1726 28.66 40.7206 28.848 40.3606 29.224C40.0086 29.6 39.8326 30.152 39.8326 30.88C39.8326 31.608 40.0086 32.16 40.3606 32.536C40.7206 32.912 41.1726 33.1 41.7166 33.1ZM49.1606 27.64C49.8166 27.64 50.3486 27.844 50.7566 28.252C51.1646 28.652 51.3686 29.272 51.3686 30.112V34H50.1566V30.388C50.1566 29.828 50.0326 29.4 49.7846 29.104C49.5446 28.808 49.1806 28.66 48.6926 28.66C48.1886 28.66 47.7846 28.812 47.4806 29.116C47.1766 29.42 47.0246 29.844 47.0246 30.388V34H45.8126V27.76H47.0246V29.008H47.0606C47.1006 28.824 47.2006 28.628 47.3606 28.42C47.5286 28.204 47.7646 28.02 48.0686 27.868C48.3726 27.716 48.7366 27.64 49.1606 27.64ZM55.7298 33.1V34.048C55.5538 34.072 55.2938 34.084 54.9498 34.084C54.4058 34.084 53.9778 33.952 53.6658 33.688C53.3538 33.424 53.1978 33 53.1978 32.416V28.708H52.1778V27.76H53.1978V26.188H54.4098V27.76H55.6458V28.708H54.4098V32.212C54.4098 32.524 54.4738 32.752 54.6018 32.896C54.7378 33.032 54.9578 33.1 55.2618 33.1H55.7298ZM62.1725 30.784C62.1725 30.952 62.1605 31.104 62.1365 31.24H57.5165C57.5965 32.544 58.2325 33.196 59.4245 33.196C59.8245 33.196 60.1565 33.116 60.4205 32.956C60.6845 32.796 60.8805 32.54 61.0085 32.188H62.0885C61.9125 32.852 61.5845 33.344 61.1045 33.664C60.6325 33.984 60.0605 34.144 59.3885 34.144C58.4925 34.144 57.7605 33.872 57.1925 33.328C56.6325 32.784 56.3525 31.976 56.3525 30.904C56.3525 30.168 56.4845 29.556 56.7485 29.068C57.0125 28.58 57.3685 28.22 57.8165 27.988C58.2645 27.756 58.7685 27.64 59.3285 27.64C60.1765 27.64 60.8605 27.904 61.3805 28.432C61.9085 28.952 62.1725 29.736 62.1725 30.784ZM61.0205 30.376C61.0045 29.816 60.8485 29.38 60.5525 29.068C60.2645 28.748 59.8525 28.588 59.3165 28.588C58.8045 28.588 58.3885 28.74 58.0685 29.044C57.7565 29.34 57.5725 29.784 57.5165 30.376H61.0205ZM66.563 27.64C67.219 27.64 67.751 27.844 68.159 28.252C68.567 28.652 68.771 29.272 68.771 30.112V34H67.559V30.388C67.559 29.828 67.435 29.4 67.187 29.104C66.947 28.808 66.583 28.66 66.095 28.66C65.591 28.66 65.187 28.812 64.883 29.116C64.579 29.42 64.427 29.844 64.427 30.388V34H63.215V27.76H64.427V29.008H64.463C64.503 28.824 64.603 28.628 64.763 28.42C64.931 28.204 65.167 28.02 65.471 27.868C65.775 27.716 66.139 27.64 66.563 27.64ZM73.1321 33.1V34.048C72.9561 34.072 72.6961 34.084 72.3521 34.084C71.8081 34.084 71.3801 33.952 71.0681 33.688C70.7561 33.424 70.6001 33 70.6001 32.416V28.708H69.5801V27.76H70.6001V26.188H71.8121V27.76H73.0481V28.708H71.8121V32.212C71.8121 32.524 71.8761 32.752 72.0041 32.896C72.1401 33.032 72.3601 33.1 72.6641 33.1H73.1321ZM80.515 34.12C79.755 34.12 79.087 33.952 78.511 33.616C77.935 33.28 77.487 32.788 77.167 32.14C76.855 31.492 76.699 30.712 76.699 29.8C76.699 28.888 76.855 28.112 77.167 27.472C77.487 26.824 77.935 26.332 78.511 25.996C79.087 25.66 79.755 25.492 80.515 25.492C81.435 25.492 82.195 25.724 82.795 26.188C83.403 26.644 83.767 27.316 83.887 28.204H82.663C82.527 27.668 82.271 27.264 81.895 26.992C81.527 26.712 81.067 26.572 80.515 26.572C79.715 26.572 79.091 26.856 78.643 27.424C78.195 27.992 77.971 28.784 77.971 29.8C77.971 30.816 78.191 31.612 78.631 32.188C79.079 32.756 79.707 33.04 80.515 33.04C81.067 33.04 81.527 32.904 81.895 32.632C82.271 32.352 82.527 31.94 82.663 31.396H83.887C83.767 32.292 83.403 32.972 82.795 33.436C82.195 33.892 81.435 34.12 80.515 34.12ZM88.0741 27.712C88.2661 27.712 88.4221 27.732 88.5421 27.772V28.792C88.3901 28.768 88.2381 28.756 88.0861 28.756C87.4861 28.756 87.0101 28.94 86.6581 29.308C86.3061 29.676 86.1301 30.2 86.1301 30.88V34H84.9181V27.76H86.1301V29.2H86.1541C86.2661 28.784 86.4821 28.432 86.8021 28.144C87.1221 27.856 87.5461 27.712 88.0741 27.712ZM94.8092 30.784C94.8092 30.952 94.7972 31.104 94.7732 31.24H90.1532C90.2332 32.544 90.8692 33.196 92.0612 33.196C92.4612 33.196 92.7932 33.116 93.0572 32.956C93.3212 32.796 93.5172 32.54 93.6452 32.188H94.7252C94.5492 32.852 94.2212 33.344 93.7412 33.664C93.2692 33.984 92.6972 34.144 92.0252 34.144C91.1292 34.144 90.3972 33.872 89.8292 33.328C89.2692 32.784 88.9892 31.976 88.9892 30.904C88.9892 30.168 89.1212 29.556 89.3852 29.068C89.6492 28.58 90.0052 28.22 90.4532 27.988C90.9012 27.756 91.4052 27.64 91.9652 27.64C92.8132 27.64 93.4972 27.904 94.0172 28.432C94.5452 28.952 94.8092 29.736 94.8092 30.784ZM93.6572 30.376C93.6412 29.816 93.4852 29.38 93.1892 29.068C92.9012 28.748 92.4892 28.588 91.9532 28.588C91.4412 28.588 91.0252 28.74 90.7052 29.044C90.3932 29.34 90.2092 29.784 90.1532 30.376H93.6572ZM98.4797 27.64C99.3517 27.64 99.9917 27.816 100.4 28.168C100.816 28.512 101.024 29.06 101.024 29.812V34H99.8957V33.028H99.8477C99.7277 33.268 99.4957 33.512 99.1517 33.76C98.8077 34 98.3117 34.12 97.6637 34.12C97.0317 34.12 96.5197 33.976 96.1277 33.688C95.7437 33.4 95.5517 32.964 95.5517 32.38C95.5517 31.828 95.7357 31.42 96.1037 31.156C96.4717 30.884 96.9917 30.704 97.6637 30.616L99.0317 30.448C99.3117 30.408 99.5117 30.36 99.6317 30.304C99.7517 30.24 99.8117 30.164 99.8117 30.076V29.848C99.8117 29.368 99.6957 29.032 99.4637 28.84C99.2317 28.648 98.8877 28.552 98.4317 28.552C97.9917 28.552 97.6557 28.636 97.4237 28.804C97.1917 28.964 97.0757 29.236 97.0757 29.62V29.752H95.9237V29.512C95.9237 28.888 96.1397 28.42 96.5717 28.108C97.0037 27.796 97.6397 27.64 98.4797 27.64ZM99.8117 31.036C99.7237 31.156 99.4877 31.24 99.1037 31.288L97.9517 31.444C97.5117 31.5 97.2037 31.596 97.0277 31.732C96.8517 31.868 96.7637 32.06 96.7637 32.308C96.7637 32.588 96.8597 32.804 97.0517 32.956C97.2517 33.1 97.5277 33.172 97.8797 33.172C98.2957 33.172 98.6477 33.088 98.9357 32.92C99.2317 32.744 99.4517 32.54 99.5957 32.308C99.7397 32.068 99.8117 31.86 99.8117 31.684V31.036ZM105.324 33.1V34.048C105.148 34.072 104.888 34.084 104.544 34.084C104 34.084 103.572 33.952 103.26 33.688C102.948 33.424 102.792 33 102.792 32.416V28.708H101.772V27.76H102.792V26.188H104.004V27.76H105.24V28.708H104.004V32.212C104.004 32.524 104.068 32.752 104.196 32.896C104.332 33.032 104.552 33.1 104.856 33.1H105.324ZM108.982 34.12C108.446 34.12 107.946 34.004 107.482 33.772C107.018 33.532 106.646 33.168 106.366 32.68C106.086 32.192 105.946 31.592 105.946 30.88C105.946 30.168 106.086 29.568 106.366 29.08C106.646 28.592 107.018 28.232 107.482 28C107.946 27.76 108.446 27.64 108.982 27.64C109.526 27.64 110.026 27.76 110.482 28C110.946 28.232 111.318 28.592 111.598 29.08C111.886 29.568 112.03 30.168 112.03 30.88C112.03 31.592 111.886 32.192 111.598 32.68C111.318 33.168 110.946 33.532 110.482 33.772C110.026 34.004 109.526 34.12 108.982 34.12ZM108.982 33.1C109.526 33.1 109.978 32.912 110.338 32.536C110.698 32.16 110.878 31.608 110.878 30.88C110.878 30.152 110.698 29.6 110.338 29.224C109.978 28.848 109.526 28.66 108.982 28.66C108.438 28.66 107.986 28.848 107.626 29.224C107.274 29.6 107.098 30.152 107.098 30.88C107.098 31.608 107.274 32.16 107.626 32.536C107.986 32.912 108.438 33.1 108.982 33.1ZM116.234 27.712C116.426 27.712 116.582 27.732 116.702 27.772V28.792C116.55 28.768 116.398 28.756 116.246 28.756C115.646 28.756 115.17 28.94 114.818 29.308C114.466 29.676 114.29 30.2 114.29 30.88V34H113.078V27.76H114.29V29.2H114.314C114.426 28.784 114.642 28.432 114.962 28.144C115.282 27.856 115.706 27.712 116.234 27.712ZM119.74 34.12C118.964 34.12 118.34 33.952 117.868 33.616C117.396 33.28 117.152 32.788 117.136 32.14H118.228C118.276 32.5 118.436 32.768 118.708 32.944C118.988 33.112 119.336 33.196 119.752 33.196C120.16 33.196 120.488 33.116 120.736 32.956C120.992 32.796 121.12 32.556 121.12 32.236C121.12 31.996 121.044 31.816 120.892 31.696C120.74 31.576 120.504 31.476 120.184 31.396L119.02 31.132C117.892 30.868 117.328 30.296 117.328 29.416C117.328 28.856 117.544 28.42 117.976 28.108C118.408 27.796 118.992 27.64 119.728 27.64C120.464 27.64 121.044 27.808 121.468 28.144C121.892 28.48 122.12 28.964 122.152 29.596H121.132C121.076 29.228 120.928 28.964 120.688 28.804C120.456 28.644 120.144 28.564 119.752 28.564C119.36 28.564 119.052 28.636 118.828 28.78C118.604 28.924 118.492 29.128 118.492 29.392C118.492 29.816 118.8 30.096 119.416 30.232L120.592 30.496C121.16 30.632 121.596 30.828 121.9 31.084C122.204 31.34 122.356 31.716 122.356 32.212C122.356 32.86 122.108 33.34 121.612 33.652C121.116 33.964 120.492 34.12 119.74 34.12Z" fill="black"/>
<g clip-path="url(#clip0_307_3)">
<path d="M17.6828 7.4068L0.737559 0.0436905C0.538891 -0.0426179 0.307704 0.00132729 0.154529 0.154468C0.00138832 0.307643 -0.0425569 0.538901 0.0437515 0.737533L7.40686 17.6828C7.49089 17.8762 7.68143 18 7.89037 18C7.90031 18 7.91033 17.9997 7.92028 17.9992C8.14082 17.9867 8.3302 17.8381 8.39479 17.6269L9.97372 12.4643C10.339 11.27 11.27 10.339 12.4643 9.9737L17.6269 8.39476C17.8381 8.33014 17.9867 8.14076 17.9991 7.92026C18.0116 7.69976 17.8854 7.49483 17.6828 7.4068Z" fill="#FADF7C"/>
</g>
<defs>
<clipPath id="clip0_307_3">
<rect width="18" height="18" fill="white"/>
</clipPath>
</defs>
</svg>
