<svg width="147" height="42" viewBox="0 0 147 42" fill="none" xmlns="http://www.w3.org/2000/svg">
<rect y="18" width="102" height="24" rx="12" fill="#F0927E"/>
<path d="M16.215 25.6C17.215 25.6 17.971 25.836 18.483 26.308C18.995 26.78 19.251 27.432 19.251 28.264C19.251 29.088 18.995 29.736 18.483 30.208C17.971 30.672 17.215 30.904 16.215 30.904H14.295V34H13.047V25.6H16.215ZM16.167 29.812C16.767 29.812 17.219 29.68 17.523 29.416C17.827 29.144 17.979 28.76 17.979 28.264C17.979 27.76 17.827 27.372 17.523 27.1C17.219 26.828 16.767 26.692 16.167 26.692H14.295V29.812H16.167ZM22.7908 34.12C22.2548 34.12 21.7548 34.004 21.2908 33.772C20.8268 33.532 20.4548 33.168 20.1748 32.68C19.8948 32.192 19.7548 31.592 19.7548 30.88C19.7548 30.168 19.8948 29.568 20.1748 29.08C20.4548 28.592 20.8268 28.232 21.2908 28C21.7548 27.76 22.2548 27.64 22.7908 27.64C23.3348 27.64 23.8348 27.76 24.2908 28C24.7548 28.232 25.1268 28.592 25.4068 29.08C25.6948 29.568 25.8388 30.168 25.8388 30.88C25.8388 31.592 25.6948 32.192 25.4068 32.68C25.1268 33.168 24.7548 33.532 24.2908 33.772C23.8348 34.004 23.3348 34.12 22.7908 34.12ZM22.7908 33.1C23.3348 33.1 23.7868 32.912 24.1468 32.536C24.5068 32.16 24.6868 31.608 24.6868 30.88C24.6868 30.152 24.5068 29.6 24.1468 29.224C23.7868 28.848 23.3348 28.66 22.7908 28.66C22.2468 28.66 21.7948 28.848 21.4348 29.224C21.0828 29.6 20.9068 30.152 20.9068 30.88C20.9068 31.608 21.0828 32.16 21.4348 32.536C21.7948 32.912 22.2468 33.1 22.7908 33.1ZM32.7294 25.6V34H31.5174V33.016C31.3334 33.36 31.0534 33.632 30.6774 33.832C30.3014 34.024 29.8854 34.12 29.4294 34.12C28.9414 34.12 28.4854 34.004 28.0614 33.772C27.6374 33.532 27.2934 33.172 27.0294 32.692C26.7734 32.204 26.6454 31.6 26.6454 30.88C26.6454 30.16 26.7734 29.556 27.0294 29.068C27.2934 28.58 27.6374 28.22 28.0614 27.988C28.4854 27.756 28.9414 27.64 29.4294 27.64C29.8854 27.64 30.3014 27.74 30.6774 27.94C31.0534 28.132 31.3334 28.4 31.5174 28.744V25.6H32.7294ZM29.6814 33.1C30.0174 33.1 30.3294 33.02 30.6174 32.86C30.9054 32.692 31.1374 32.444 31.3134 32.116C31.4894 31.78 31.5774 31.368 31.5774 30.88C31.5774 30.392 31.4894 29.984 31.3134 29.656C31.1374 29.32 30.9054 29.072 30.6174 28.912C30.3294 28.744 30.0174 28.66 29.6814 28.66C29.3454 28.66 29.0334 28.744 28.7454 28.912C28.4574 29.072 28.2254 29.32 28.0494 29.656C27.8734 29.984 27.7854 30.392 27.7854 30.88C27.7854 31.368 27.8734 31.78 28.0494 32.116C28.2254 32.444 28.4574 32.692 28.7454 32.86C29.0334 33.02 29.3454 33.1 29.6814 33.1ZM36.8184 34.12C36.2744 34.12 35.7704 34.004 35.3064 33.772C34.8424 33.532 34.4704 33.172 34.1904 32.692C33.9104 32.204 33.7704 31.604 33.7704 30.892C33.7704 30.164 33.9104 29.556 34.1904 29.068C34.4704 28.58 34.8384 28.22 35.2944 27.988C35.7584 27.756 36.2664 27.64 36.8184 27.64C37.4904 27.64 38.0864 27.82 38.6064 28.18C39.1264 28.532 39.4384 29.132 39.5424 29.98H38.4624C38.3744 29.524 38.1824 29.192 37.8864 28.984C37.5904 28.768 37.2304 28.66 36.8064 28.66C36.2304 28.66 35.7704 28.856 35.4264 29.248C35.0904 29.64 34.9224 30.188 34.9224 30.892C34.9224 31.588 35.0904 32.132 35.4264 32.524C35.7704 32.908 36.2304 33.1 36.8064 33.1C37.2304 33.1 37.5904 32.992 37.8864 32.776C38.1824 32.56 38.3744 32.22 38.4624 31.756H39.5424C39.4464 32.612 39.1344 33.22 38.6064 33.58C38.0864 33.94 37.4904 34.12 36.8184 34.12ZM43.1438 27.64C44.0158 27.64 44.6558 27.816 45.0638 28.168C45.4798 28.512 45.6878 29.06 45.6878 29.812V34H44.5598V33.028H44.5118C44.3918 33.268 44.1598 33.512 43.8158 33.76C43.4718 34 42.9758 34.12 42.3278 34.12C41.6958 34.12 41.1838 33.976 40.7918 33.688C40.4078 33.4 40.2158 32.964 40.2158 32.38C40.2158 31.828 40.3998 31.42 40.7678 31.156C41.1358 30.884 41.6558 30.704 42.3278 30.616L43.6958 30.448C43.9758 30.408 44.1758 30.36 44.2958 30.304C44.4158 30.24 44.4758 30.164 44.4758 30.076V29.848C44.4758 29.368 44.3598 29.032 44.1278 28.84C43.8958 28.648 43.5518 28.552 43.0958 28.552C42.6558 28.552 42.3198 28.636 42.0878 28.804C41.8558 28.964 41.7398 29.236 41.7398 29.62V29.752H40.5878V29.512C40.5878 28.888 40.8038 28.42 41.2358 28.108C41.6678 27.796 42.3038 27.64 43.1438 27.64ZM44.4758 31.036C44.3878 31.156 44.1518 31.24 43.7678 31.288L42.6158 31.444C42.1758 31.5 41.8678 31.596 41.6918 31.732C41.5158 31.868 41.4277 32.06 41.4277 32.308C41.4277 32.588 41.5238 32.804 41.7158 32.956C41.9158 33.1 42.1918 33.172 42.5438 33.172C42.9598 33.172 43.3118 33.088 43.5998 32.92C43.8958 32.744 44.1158 32.54 44.2598 32.308C44.4038 32.068 44.4758 31.86 44.4758 31.684V31.036ZM49.2754 34.12C48.4994 34.12 47.8754 33.952 47.4034 33.616C46.9314 33.28 46.6874 32.788 46.6714 32.14H47.7634C47.8114 32.5 47.9714 32.768 48.2434 32.944C48.5234 33.112 48.8714 33.196 49.2874 33.196C49.6954 33.196 50.0234 33.116 50.2714 32.956C50.5274 32.796 50.6554 32.556 50.6554 32.236C50.6554 31.996 50.5794 31.816 50.4274 31.696C50.2754 31.576 50.0394 31.476 49.7194 31.396L48.5554 31.132C47.4274 30.868 46.8634 30.296 46.8634 29.416C46.8634 28.856 47.0794 28.42 47.5114 28.108C47.9434 27.796 48.5274 27.64 49.2634 27.64C49.9994 27.64 50.5794 27.808 51.0034 28.144C51.4274 28.48 51.6554 28.964 51.6874 29.596H50.6674C50.6114 29.228 50.4634 28.964 50.2234 28.804C49.9914 28.644 49.6794 28.564 49.2874 28.564C48.8954 28.564 48.5874 28.636 48.3634 28.78C48.1394 28.924 48.0274 29.128 48.0274 29.392C48.0274 29.816 48.3354 30.096 48.9514 30.232L50.1274 30.496C50.6954 30.632 51.1314 30.828 51.4354 31.084C51.7394 31.34 51.8914 31.716 51.8914 32.212C51.8914 32.86 51.6434 33.34 51.1474 33.652C50.6514 33.964 50.0274 34.12 49.2754 34.12ZM56.011 33.1V34.048C55.835 34.072 55.575 34.084 55.231 34.084C54.687 34.084 54.259 33.952 53.947 33.688C53.635 33.424 53.479 33 53.479 32.416V28.708H52.459V27.76H53.479V26.188H54.691V27.76H55.927V28.708H54.691V32.212C54.691 32.524 54.755 32.752 54.883 32.896C55.019 33.032 55.239 33.1 55.543 33.1H56.011ZM65.0739 25.6H66.3099V34H65.0739V30.376H61.0059V34H59.7579V25.6H61.0059V29.344H65.0739V25.6ZM70.3924 34.12C69.8564 34.12 69.3564 34.004 68.8924 33.772C68.4284 33.532 68.0564 33.168 67.7764 32.68C67.4964 32.192 67.3564 31.592 67.3564 30.88C67.3564 30.168 67.4964 29.568 67.7764 29.08C68.0564 28.592 68.4284 28.232 68.8924 28C69.3564 27.76 69.8564 27.64 70.3924 27.64C70.9364 27.64 71.4364 27.76 71.8924 28C72.3564 28.232 72.7284 28.592 73.0084 29.08C73.2964 29.568 73.4404 30.168 73.4404 30.88C73.4404 31.592 73.2964 32.192 73.0084 32.68C72.7284 33.168 72.3564 33.532 71.8924 33.772C71.4364 34.004 70.9364 34.12 70.3924 34.12ZM70.3924 33.1C70.9364 33.1 71.3884 32.912 71.7484 32.536C72.1084 32.16 72.2884 31.608 72.2884 30.88C72.2884 30.152 72.1084 29.6 71.7484 29.224C71.3884 28.848 70.9364 28.66 70.3924 28.66C69.8484 28.66 69.3964 28.848 69.0364 29.224C68.6844 29.6 68.5084 30.152 68.5084 30.88C68.5084 31.608 68.6844 32.16 69.0364 32.536C69.3964 32.912 69.8484 33.1 70.3924 33.1ZM76.7324 34.12C75.9564 34.12 75.3324 33.952 74.8604 33.616C74.3884 33.28 74.1444 32.788 74.1284 32.14H75.2204C75.2684 32.5 75.4284 32.768 75.7004 32.944C75.9804 33.112 76.3284 33.196 76.7444 33.196C77.1524 33.196 77.4804 33.116 77.7284 32.956C77.9844 32.796 78.1124 32.556 78.1124 32.236C78.1124 31.996 78.0364 31.816 77.8844 31.696C77.7324 31.576 77.4964 31.476 77.1764 31.396L76.0124 31.132C74.8844 30.868 74.3204 30.296 74.3204 29.416C74.3204 28.856 74.5364 28.42 74.9684 28.108C75.4004 27.796 75.9844 27.64 76.7204 27.64C77.4564 27.64 78.0364 27.808 78.4604 28.144C78.8844 28.48 79.1124 28.964 79.1444 29.596H78.1244C78.0684 29.228 77.9204 28.964 77.6804 28.804C77.4484 28.644 77.1364 28.564 76.7444 28.564C76.3524 28.564 76.0444 28.636 75.8204 28.78C75.5964 28.924 75.4844 29.128 75.4844 29.392C75.4844 29.816 75.7924 30.096 76.4084 30.232L77.5844 30.496C78.1524 30.632 78.5884 30.828 78.8924 31.084C79.1964 31.34 79.3484 31.716 79.3484 32.212C79.3484 32.86 79.1004 33.34 78.6044 33.652C78.1084 33.964 77.4844 34.12 76.7324 34.12ZM83.4681 33.1V34.048C83.2921 34.072 83.0321 34.084 82.6881 34.084C82.1441 34.084 81.7161 33.952 81.4041 33.688C81.0921 33.424 80.9361 33 80.9361 32.416V28.708H79.9161V27.76H80.9361V26.188H82.1481V27.76H83.3841V28.708H82.1481V32.212C82.1481 32.524 82.2121 32.752 82.3401 32.896C82.4761 33.032 82.6961 33.1 83.0001 33.1H83.4681ZM86.6933 34.12C85.9173 34.12 85.2933 33.952 84.8213 33.616C84.3493 33.28 84.1053 32.788 84.0893 32.14H85.1813C85.2293 32.5 85.3893 32.768 85.6613 32.944C85.9413 33.112 86.2893 33.196 86.7053 33.196C87.1133 33.196 87.4413 33.116 87.6893 32.956C87.9453 32.796 88.0733 32.556 88.0733 32.236C88.0733 31.996 87.9973 31.816 87.8453 31.696C87.6933 31.576 87.4573 31.476 87.1373 31.396L85.9733 31.132C84.8453 30.868 84.2813 30.296 84.2813 29.416C84.2813 28.856 84.4973 28.42 84.9293 28.108C85.3613 27.796 85.9453 27.64 86.6813 27.64C87.4173 27.64 87.9973 27.808 88.4213 28.144C88.8453 28.48 89.0733 28.964 89.1053 29.596H88.0853C88.0293 29.228 87.8813 28.964 87.6413 28.804C87.4093 28.644 87.0973 28.564 86.7053 28.564C86.3133 28.564 86.0053 28.636 85.7813 28.78C85.5573 28.924 85.4453 29.128 85.4453 29.392C85.4453 29.816 85.7533 30.096 86.3693 30.232L87.5453 30.496C88.1133 30.632 88.5493 30.828 88.8533 31.084C89.1573 31.34 89.3093 31.716 89.3093 32.212C89.3093 32.86 89.0613 33.34 88.5653 33.652C88.0693 33.964 87.4453 34.12 86.6933 34.12Z" fill="black"/>
<g clip-path="url(#clip0_307_2)">
<path d="M129.317 7.4068L146.262 0.0436905C146.461 -0.0426179 146.692 0.00132729 146.845 0.154468C146.999 0.307643 147.043 0.538901 146.956 0.737533L139.593 17.6828C139.509 17.8762 139.319 18 139.11 18C139.1 18 139.09 17.9997 139.08 17.9992C138.859 17.9867 138.67 17.8381 138.605 17.6269L137.026 12.4643C136.661 11.27 135.73 10.339 134.536 9.9737L129.373 8.39476C129.162 8.33014 129.013 8.14076 129.001 7.92026C128.988 7.69976 129.115 7.49483 129.317 7.4068Z" fill="#F0927E"/>
</g>
<defs>
<clipPath id="clip0_307_2">
<rect width="18" height="18" fill="white" transform="matrix(-1 0 0 1 147 0)"/>
</clipPath>
</defs>
</svg>
