<svg width="138" height="16" viewBox="0 0 138 16" fill="none" xmlns="http://www.w3.org/2000/svg">
<path d="M11.24 15L10.24 12.14H4.14L3.14 15H0.38L5.52 0.999999H8.88L14.02 15H11.24ZM4.84 10.18H9.56L7.28 3.7H7.12L4.84 10.18ZM20.0236 13.08V15.08C19.6769 15.12 19.1769 15.14 18.5236 15.14C17.5103 15.14 16.7169 14.8933 16.1436 14.4C15.5836 13.9067 15.3036 13.1333 15.3036 12.08V6.58H13.5636V4.6H15.3036V1.94H17.8636V4.6H19.9036V6.58H17.8636V11.68C17.8636 12.1467 17.9636 12.5 18.1636 12.74C18.3636 12.9667 18.6969 13.08 19.1636 13.08H20.0236ZM26.1306 15.2C25.2106 15.2 24.3573 15.0067 23.5706 14.62C22.7973 14.22 22.1706 13.62 21.6906 12.82C21.2106 12.0067 20.9706 11 20.9706 9.8C20.9706 8.6 21.2106 7.6 21.6906 6.8C22.1706 5.98667 22.7973 5.38667 23.5706 5C24.3573 4.6 25.2106 4.4 26.1306 4.4C27.0373 4.4 27.884 4.6 28.6706 5C29.4573 5.38667 30.0906 5.98667 30.5706 6.8C31.0506 7.6 31.2906 8.6 31.2906 9.8C31.2906 11 31.0506 12.0067 30.5706 12.82C30.0906 13.62 29.4573 14.22 28.6706 14.62C27.884 15.0067 27.0373 15.2 26.1306 15.2ZM26.1306 13.06C26.9306 13.06 27.584 12.7867 28.0906 12.24C28.6106 11.6933 28.8706 10.88 28.8706 9.8C28.8706 8.72 28.6106 7.90667 28.0906 7.36C27.584 6.81333 26.9306 6.54 26.1306 6.54C25.3173 6.54 24.6506 6.81333 24.1306 7.36C23.624 7.90667 23.3706 8.72 23.3706 9.8C23.3706 10.88 23.624 11.6933 24.1306 12.24C24.6506 12.7867 25.3173 13.06 26.1306 13.06ZM45.2155 4.4C46.2688 4.4 47.1155 4.74 47.7555 5.42C48.3955 6.1 48.7155 7.11333 48.7155 8.46V15H46.1555V9.06C46.1555 8.22 45.9888 7.58667 45.6555 7.16C45.3221 6.73333 44.8421 6.52 44.2155 6.52C43.5755 6.52 43.0621 6.74 42.6755 7.18C42.2888 7.60667 42.0955 8.23333 42.0955 9.06V15H39.5355V9.06C39.5355 8.22 39.3688 7.58667 39.0355 7.16C38.7155 6.73333 38.2421 6.52 37.6155 6.52C36.9755 6.52 36.4621 6.74 36.0755 7.18C35.6888 7.60667 35.4955 8.23333 35.4955 9.06V15H32.9355V4.6H35.4955V6.74H35.5755C35.6288 6.40667 35.7888 6.06 36.0555 5.7C36.3221 5.34 36.6755 5.03333 37.1155 4.78C37.5688 4.52667 38.0955 4.4 38.6955 4.4C39.4555 4.4 40.1155 4.6 40.6755 5C41.2488 5.4 41.6488 6 41.8755 6.8C41.9555 6.45333 42.1288 6.1 42.3955 5.74C42.6755 5.36667 43.0555 5.05333 43.5355 4.8C44.0155 4.53333 44.5755 4.4 45.2155 4.4ZM52.1452 3.14C51.7452 3.14 51.3985 3.00667 51.1052 2.74C50.8252 2.46 50.6852 2.12667 50.6852 1.74C50.6852 1.34 50.8252 1.00667 51.1052 0.739999C51.3985 0.459999 51.7452 0.319999 52.1452 0.319999C52.5318 0.319999 52.8652 0.459999 53.1452 0.739999C53.4385 1.00667 53.5852 1.34 53.5852 1.74C53.5852 2.12667 53.4385 2.46 53.1452 2.74C52.8652 3.00667 52.5318 3.14 52.1452 3.14ZM50.8652 4.6H53.4252V15H50.8652V4.6ZM62.9322 15L59.3922 10.68L58.1322 12V15H55.5722V0.999999H58.1322V9.26L62.3722 4.6H65.2122L60.9522 9.06L65.7722 15H62.9322Z" fill="white"/>
<path d="M77.9469 15.2C76.5735 15.2 75.3869 14.92 74.3869 14.36C73.4002 13.7867 72.6402 12.9667 72.1069 11.9C71.5869 10.82 71.3269 9.52667 71.3269 8.02C71.3269 6.51333 71.6002 5.22 72.1469 4.14C72.6935 3.06 73.4602 2.24 74.4469 1.68C75.4335 1.10667 76.5735 0.819999 77.8669 0.819999C79.3469 0.819999 80.5935 1.19333 81.6069 1.94C82.6335 2.67333 83.2735 3.76 83.5269 5.2H80.9069C80.6802 4.45333 80.2935 3.92 79.7469 3.6C79.2002 3.26667 78.5669 3.1 77.8469 3.1C76.6202 3.1 75.6735 3.54 75.0069 4.42C74.3535 5.3 74.0269 6.48667 74.0269 7.98C74.0269 9.47333 74.3535 10.6733 75.0069 11.58C75.6735 12.4733 76.6269 12.92 77.8669 12.92C78.8402 12.92 79.6402 12.6467 80.2669 12.1C80.9069 11.54 81.2269 10.6933 81.2269 9.56H78.3069V7.44H83.8469V8.52C83.8469 10.7467 83.3402 12.42 82.3269 13.54C81.3269 14.6467 79.8669 15.2 77.9469 15.2ZM91.487 4.52C91.7804 4.52 92.047 4.55333 92.287 4.62V6.78C91.9804 6.74 91.7137 6.72 91.487 6.72C90.567 6.72 89.8137 7.00667 89.227 7.58C88.6404 8.14 88.347 9 88.347 10.16V15H85.787V4.6H88.347V7.08H88.407C88.5937 6.32 88.947 5.70667 89.467 5.24C89.987 4.76 90.6604 4.52 91.487 4.52ZM98.1033 15.2C97.1833 15.2 96.3299 15.0067 95.5433 14.62C94.7699 14.22 94.1433 13.62 93.6633 12.82C93.1833 12.0067 92.9433 11 92.9433 9.8C92.9433 8.6 93.1833 7.6 93.6633 6.8C94.1433 5.98667 94.7699 5.38667 95.5433 5C96.3299 4.6 97.1833 4.4 98.1033 4.4C99.0099 4.4 99.8566 4.6 100.643 5C101.43 5.38667 102.063 5.98667 102.543 6.8C103.023 7.6 103.263 8.6 103.263 9.8C103.263 11 103.023 12.0067 102.543 12.82C102.063 13.62 101.43 14.22 100.643 14.62C99.8566 15.0067 99.0099 15.2 98.1033 15.2ZM98.1033 13.06C98.9033 13.06 99.5566 12.7867 100.063 12.24C100.583 11.6933 100.843 10.88 100.843 9.8C100.843 8.72 100.583 7.90667 100.063 7.36C99.5566 6.81333 98.9033 6.54 98.1033 6.54C97.2899 6.54 96.6233 6.81333 96.1033 7.36C95.5966 7.90667 95.3433 8.72 95.3433 9.8C95.3433 10.88 95.5966 11.6933 96.1033 12.24C96.6233 12.7867 97.2899 13.06 98.1033 13.06ZM103.818 4.6H106.238L108.178 12.5H108.258L110.518 4.6H112.738L114.998 12.5H115.078L117.018 4.6H119.458L116.618 15H113.738L111.638 8L109.518 15H106.638L103.818 4.6ZM126.664 13.08V15.08C126.318 15.12 125.818 15.14 125.164 15.14C124.151 15.14 123.358 14.8933 122.784 14.4C122.224 13.9067 121.944 13.1333 121.944 12.08V6.58H120.204V4.6H121.944V1.94H124.504V4.6H126.544V6.58H124.504V11.68C124.504 12.1467 124.604 12.5 124.804 12.74C125.004 12.9667 125.338 13.08 125.804 13.08H126.664ZM134.249 4.4C135.329 4.4 136.202 4.74 136.869 5.42C137.536 6.1 137.869 7.11333 137.869 8.46V15H135.309V9.06C135.309 8.22 135.129 7.58667 134.769 7.16C134.409 6.73333 133.882 6.52 133.189 6.52C132.456 6.52 131.869 6.74 131.429 7.18C130.989 7.60667 130.769 8.23333 130.769 9.06V15H128.209V0.999999H130.769V6.74H130.849C130.929 6.39333 131.102 6.04 131.369 5.68C131.636 5.32 132.009 5.02 132.489 4.78C132.982 4.52667 133.569 4.4 134.249 4.4Z" fill="url(#paint0_linear_423_2)"/>
<defs>
<linearGradient id="paint0_linear_423_2" x1="120.143" y1="15" x2="159.054" y2="-8.47929" gradientUnits="userSpaceOnUse">
<stop stop-color="#6972DE"/>
<stop offset="1" stop-color="#6972DE" stop-opacity="0"/>
</linearGradient>
</defs>
</svg>
