<svg width="21" height="22" viewBox="0 0 21 22" fill="none" xmlns="http://www.w3.org/2000/svg">
<g opacity="0.2">
<mask id="mask0_19_442" style="mask-type:alpha" maskUnits="userSpaceOnUse" x="0" y="0" width="21" height="22">
<rect x="0.812195" y="0.753662" width="20" height="20" transform="rotate(2 0.812195 0.753662)" fill="#D9D9D9"/>
</mask>
<g mask="url(#mask0_19_442)">
<path d="M5.1869 15.1652C5.91371 14.6486 6.7198 14.2494 7.60517 13.9676C8.49055 13.6858 9.41211 13.5617 10.3699 13.5951C11.3276 13.6285 12.2383 13.8167 13.1018 14.1595C13.9654 14.5024 14.7417 14.9568 15.4307 15.5229C15.9363 14.9708 16.3371 14.3385 16.633 13.6262C16.9289 12.9139 17.0911 12.1482 17.1197 11.3293C17.1842 9.48319 16.5902 7.88857 15.3377 6.54543C14.0852 5.20229 12.5359 4.49849 10.6898 4.43402C8.84367 4.36955 7.24905 4.96357 5.90591 6.21607C4.56277 7.46857 3.85897 9.01786 3.7945 10.864C3.7659 11.6829 3.87433 12.458 4.1198 13.1892C4.36526 13.9205 4.72096 14.5791 5.1869 15.1652ZM10.428 11.9295C9.60908 11.9009 8.92834 11.5957 8.38582 11.0139C7.84329 10.4321 7.58632 9.73172 7.61492 8.91277C7.64352 8.09383 7.94871 7.41309 8.5305 6.87056C9.11229 6.32804 9.81266 6.07107 10.6316 6.09967C11.4505 6.12827 12.1313 6.43346 12.6738 7.01525C13.2163 7.59704 13.4733 8.29741 13.4447 9.11635C13.4161 9.9353 13.1109 10.616 12.5291 11.1586C11.9473 11.7011 11.247 11.958 10.428 11.9295ZM10.1663 19.4249C9.0142 19.3847 7.93916 19.1282 6.94116 18.6556C5.94316 18.183 5.08247 17.5588 4.3591 16.7831C3.63573 16.0074 3.07312 15.1053 2.67128 14.0767C2.26943 13.0482 2.08862 11.9579 2.12885 10.8058C2.16908 9.65372 2.4255 8.57868 2.89812 7.58068C3.37074 6.58268 3.99491 5.72199 4.77063 4.99862C5.54634 4.27525 6.44847 3.71264 7.47701 3.3108C8.50555 2.90895 9.59586 2.72814 10.7479 2.76837C11.9 2.8086 12.975 3.06502 13.9731 3.53764C14.9711 4.01026 15.8317 4.63443 16.5551 5.41014C17.2785 6.18586 17.8411 7.08799 18.2429 8.11653C18.6448 9.14507 18.8256 10.2354 18.7854 11.3875C18.7451 12.5395 18.4887 13.6146 18.0161 14.6126C17.5435 15.6106 16.9193 16.4713 16.1436 17.1946C15.3679 17.918 14.4657 18.4806 13.4372 18.8825C12.4087 19.2843 11.3184 19.4651 10.1663 19.4249Z" fill="white"/>
</g>
</g>
</svg>
