<svg width="22" height="22" viewBox="0 0 22 22" fill="none" xmlns="http://www.w3.org/2000/svg">
<path d="M20.1978 7.15467C21.6445 7.5722 22.1284 9.37816 21.0843 10.4631L19.1986 12.4226C18.7221 12.9177 18.5332 13.6228 18.6983 14.2899L19.3516 16.9297C19.7133 18.3913 18.3913 19.7133 16.9297 19.3516L14.2899 18.6983C13.6228 18.5332 12.9177 18.7221 12.4225 19.1986L10.4631 21.0843C9.37815 22.1284 7.57218 21.6445 7.15466 20.1978L6.40055 17.585C6.21 16.9248 5.69382 16.4086 5.03358 16.2181L2.42076 15.464C0.974123 15.0464 0.490216 13.2405 1.53428 12.1556L3.42 10.1961C3.8965 9.70092 4.08543 8.99582 3.92034 8.32876L3.26701 5.68893C2.90527 4.22735 4.22733 2.90529 5.68892 3.26702L8.32874 3.92036C8.9958 4.08545 9.70091 3.89652 10.1961 3.42001L12.1555 1.53429C13.2404 0.49023 15.0464 0.974136 15.4639 2.42077L16.218 5.0336C16.4086 5.69383 16.9248 6.21001 17.585 6.40057L20.1978 7.15467Z" fill="white"/>
</svg>
