<svg width="18" height="18" viewBox="0 0 18 18" fill="none" xmlns="http://www.w3.org/2000/svg">
<g clip-path="url(#clip0_1_517)">
<path d="M17.744 5.28639C17.7024 4.331 17.5498 3.67418 17.3312 3.10504C17.1057 2.50091 16.7587 1.96003 16.3041 1.5104C15.8599 1.05377 15.3221 0.698943 14.7323 0.474194C14.1668 0.252876 13.5214 0.0983789 12.5777 0.0562557C11.6269 0.0105651 11.3251 0 8.9136 0C6.50215 0 6.20031 0.0105651 5.25305 0.0526883C4.30931 0.0948114 3.6605 0.249446 3.09844 0.470627C2.50154 0.698943 1.96726 1.0502 1.52311 1.5104C1.07204 1.96003 0.721683 2.50448 0.499539 3.10161C0.28092 3.67418 0.128307 4.32744 0.0866976 5.28282C0.0415642 6.24534 0.0311279 6.55091 0.0311279 8.99213C0.0311279 11.4334 0.0415642 11.7389 0.0831737 12.6979C0.124783 13.6533 0.277532 14.3101 0.496151 14.8792C0.721683 15.4834 1.07204 16.0242 1.52311 16.4739C1.96726 16.9305 2.50506 17.2853 3.09491 17.5101C3.6605 17.7314 4.30579 17.8859 5.24966 17.928C6.19678 17.9703 6.49876 17.9807 8.91021 17.9807C11.3217 17.9807 11.6235 17.9703 12.5708 17.928C13.5145 17.8859 14.1633 17.7314 14.7254 17.5101C15.919 17.0429 16.8628 16.0875 17.3243 14.8792C17.5428 14.3066 17.6955 13.6533 17.7371 12.6979C17.7787 11.7389 17.7892 11.4334 17.7892 8.99213C17.7892 6.55091 17.7856 6.24534 17.744 5.28639ZM16.1446 12.6276C16.1063 13.5058 15.9606 13.98 15.8392 14.2961C15.5408 15.0794 14.9266 15.7011 14.1529 16.0032C13.8406 16.1262 13.3688 16.2737 12.5048 16.3122C11.5679 16.3545 11.287 16.3649 8.91712 16.3649C6.54728 16.3649 6.26279 16.3545 5.32936 16.3122C4.46193 16.2737 3.99352 16.1262 3.68124 16.0032C3.29618 15.8592 2.94569 15.6309 2.6612 15.3323C2.36627 15.0407 2.14074 14.6895 1.99843 14.2996C1.87699 13.9835 1.73129 13.5058 1.6932 12.6312C1.65146 11.6828 1.64116 11.3982 1.64116 8.99913C1.64116 6.60003 1.65146 6.31203 1.6932 5.36721C1.73129 4.48907 1.87699 4.01487 1.99843 3.69874C2.14074 3.3088 2.36627 2.95411 2.66472 2.66597C2.9526 2.3674 3.29957 2.13909 3.68477 1.99516C3.99704 1.87222 4.46898 1.72472 5.33288 1.68602C6.2697 1.6439 6.5508 1.63334 8.92051 1.63334C11.2939 1.63334 11.5748 1.6439 12.5083 1.68602C13.3757 1.72472 13.8441 1.87222 14.1564 1.99516C14.5415 2.13909 14.8919 2.3674 15.1764 2.66597C15.4714 2.95754 15.6969 3.3088 15.8392 3.69874C15.9606 4.01487 16.1063 4.4925 16.1446 5.36721C16.1862 6.31559 16.1966 6.60003 16.1966 8.99913C16.1966 11.3982 16.1862 11.6792 16.1446 12.6276Z" fill="white"/>
<path d="M8.91424 4.37305C6.39531 4.37305 4.35156 6.44188 4.35156 8.99205C4.35156 11.5422 6.39531 13.6111 8.91424 13.6111C11.4333 13.6111 13.4769 11.5422 13.4769 8.99205C13.4769 6.44188 11.4333 4.37305 8.91424 4.37305ZM8.91424 11.9883C7.28008 11.9883 5.95454 10.6465 5.95454 8.99205C5.95454 7.33758 7.28008 5.99582 8.91424 5.99582C10.5485 5.99582 11.8739 7.33758 11.8739 8.99205C11.8739 10.6465 10.5485 11.9883 8.91424 11.9883V11.9883Z" fill="white"/>
<path d="M14.7242 4.19063C14.7242 4.78612 14.2473 5.26896 13.6589 5.26896C13.0707 5.26896 12.5938 4.78612 12.5938 4.19063C12.5938 3.59501 13.0707 3.1123 13.6589 3.1123C14.2473 3.1123 14.7242 3.59501 14.7242 4.19063V4.19063Z" fill="white"/>
</g>
<defs>
<clipPath id="clip0_1_517">
<rect width="17.7615" height="17.9807" fill="white"/>
</clipPath>
</defs>
</svg>
