<svg width="129" height="42" viewBox="0 0 129 42" fill="none" xmlns="http://www.w3.org/2000/svg">
<rect x="18" y="18" width="111" height="24" rx="12" fill="#FADF7C"/>
<path d="M33.4342 34V26.38H30.7462V25.6H36.9862V26.38H34.3102V34H33.4342ZM42.1886 30.7C42.1886 30.904 42.1766 31.024 42.1526 31.132H37.3646C37.4246 32.68 38.1926 33.448 39.5246 33.448C40.2806 33.448 41.0006 33.196 41.3246 32.296H42.1046C41.6846 33.664 40.6406 34.132 39.4886 34.132C37.7606 34.132 36.5366 33.088 36.5366 30.904C36.5366 28.636 37.8446 27.64 39.4286 27.64C41.0246 27.64 42.1886 28.66 42.1886 30.7ZM37.3766 30.508H41.3726C41.3486 29.092 40.6046 28.324 39.4166 28.324C38.2886 28.324 37.4486 29.032 37.3766 30.508ZM46.0405 34.12C44.4325 34.12 43.0405 33.076 43.0405 30.892C43.0405 28.672 44.4325 27.64 46.0405 27.64C47.1565 27.64 48.4405 28.144 48.6685 29.848H47.9005C47.7085 28.756 46.8685 28.36 46.0285 28.36C44.7925 28.36 43.8685 29.212 43.8685 30.892C43.8685 32.548 44.7925 33.4 46.0285 33.4C46.8685 33.4 47.7085 33.004 47.9005 31.888H48.6685C48.4525 33.616 47.1565 34.12 46.0405 34.12ZM52.7753 27.64C54.0113 27.64 55.0193 28.3 55.0193 30.16V34H54.1673V30.328C54.1673 29.104 53.6633 28.372 52.4873 28.372C51.3353 28.372 50.5793 29.104 50.5793 30.328V34H49.7273V25.6H50.5793V28.924C50.7113 28.516 51.3473 27.64 52.7753 27.64ZM61.8726 34.12C60.2646 34.12 58.8726 33.076 58.8726 30.892C58.8726 28.672 60.2646 27.64 61.8726 27.64C62.9886 27.64 64.2726 28.144 64.5006 29.848H63.7326C63.5406 28.756 62.7006 28.36 61.8606 28.36C60.6246 28.36 59.7006 29.212 59.7006 30.892C59.7006 32.548 60.6246 33.4 61.8606 33.4C62.7006 33.4 63.5406 33.004 63.7326 31.888H64.5006C64.2846 33.616 62.9886 34.12 61.8726 34.12ZM68.1887 34.12C66.6407 34.12 65.2007 33.088 65.2007 30.88C65.2007 28.672 66.6407 27.64 68.1887 27.64C69.7247 27.64 71.1647 28.672 71.1647 30.88C71.1647 33.088 69.7247 34.12 68.1887 34.12ZM68.1887 33.4C69.3047 33.4 70.3487 32.62 70.3487 30.88C70.3487 29.14 69.3047 28.36 68.1887 28.36C67.0607 28.36 66.0287 29.14 66.0287 30.88C66.0287 32.62 67.0607 33.4 68.1887 33.4ZM79.1861 27.64C80.3741 27.64 81.3221 28.3 81.3221 30.16V34H80.4701V30.328C80.4701 29.104 80.0021 28.372 78.9221 28.372C77.8541 28.372 77.2301 29.104 77.2301 30.328V34H76.3781V30.328C76.3781 29.104 75.9101 28.372 74.8301 28.372C73.7621 28.372 73.1261 29.104 73.1261 30.328V34H72.2741V27.76H73.1261V28.924C73.2461 28.516 73.7981 27.64 75.1301 27.64C75.9941 27.64 76.7501 28.012 77.0741 28.996C77.2541 28.516 77.8181 27.64 79.1861 27.64ZM85.8353 27.64C87.2993 27.64 88.6553 28.636 88.6553 30.88C88.6553 33.112 87.2993 34.12 85.8353 34.12C84.9113 34.12 84.0353 33.724 83.5793 32.932V36.28H82.7273V27.76H83.5793V28.828C84.0353 28.036 84.9113 27.64 85.8353 27.64ZM85.7033 33.4C86.8073 33.4 87.8513 32.596 87.8513 30.88C87.8513 29.164 86.8073 28.36 85.7033 28.36C84.6113 28.36 83.5433 29.164 83.5433 30.88C83.5433 32.596 84.6113 33.4 85.7033 33.4ZM92.2905 27.64C93.9225 27.64 94.7265 28.264 94.7265 29.764V34H93.9225V32.92H93.8865C93.7305 33.244 93.0345 34.12 91.4985 34.12C90.2985 34.12 89.4585 33.58 89.4585 32.44C89.4585 31.396 90.1785 30.88 91.5585 30.688L92.9265 30.508C93.5865 30.412 93.8745 30.28 93.8745 30.1V29.764C93.8745 28.672 93.2985 28.3 92.2545 28.3C91.1865 28.3 90.6585 28.684 90.6585 29.512V29.644H89.8425V29.452C89.8425 28.204 90.7545 27.64 92.2905 27.64ZM93.8745 31.816V30.784C93.8505 30.928 93.5625 31.048 92.9985 31.12L91.7385 31.3C90.6225 31.456 90.3105 31.84 90.3105 32.392C90.3105 33.148 90.8985 33.436 91.6545 33.436C93.1905 33.436 93.8745 32.296 93.8745 31.816ZM99.2284 27.64C100.464 27.64 101.472 28.3 101.472 30.16V34H100.62V30.328C100.62 29.104 100.116 28.372 98.9404 28.372C97.7884 28.372 97.0324 29.104 97.0324 30.328V34H96.1804V27.76H97.0324V28.924C97.1644 28.516 97.8004 27.64 99.2284 27.64ZM103.292 26.452C102.992 26.452 102.728 26.2 102.728 25.9C102.728 25.6 102.992 25.348 103.292 25.348C103.592 25.348 103.844 25.6 103.844 25.9C103.844 26.2 103.592 26.452 103.292 26.452ZM102.86 34V27.76H103.712V34H102.86ZM110.474 30.7C110.474 30.904 110.462 31.024 110.438 31.132H105.65C105.71 32.68 106.478 33.448 107.81 33.448C108.566 33.448 109.286 33.196 109.61 32.296H110.39C109.97 33.664 108.926 34.132 107.774 34.132C106.046 34.132 104.822 33.088 104.822 30.904C104.822 28.636 106.13 27.64 107.714 27.64C109.31 27.64 110.474 28.66 110.474 30.7ZM105.662 30.508H109.658C109.634 29.092 108.89 28.324 107.702 28.324C106.574 28.324 105.734 29.032 105.662 30.508ZM113.763 34.12C112.383 34.12 111.279 33.544 111.207 32.272H111.987C112.107 33.148 112.947 33.448 113.775 33.448C114.639 33.448 115.395 33.112 115.395 32.284C115.395 31.636 114.939 31.432 114.231 31.252L113.055 30.976C111.963 30.712 111.423 30.184 111.423 29.344C111.423 28.252 112.347 27.64 113.715 27.64C115.035 27.64 115.983 28.216 116.067 29.452H115.347C115.191 28.6 114.579 28.312 113.727 28.312C112.803 28.312 112.239 28.672 112.239 29.32C112.239 29.8 112.551 30.136 113.343 30.328L114.507 30.592C115.539 30.844 116.259 31.216 116.259 32.272C116.259 33.64 115.023 34.12 113.763 34.12Z" fill="black"/>
<g clip-path="url(#clip0_170_14)">
<path d="M17.6827 7.4068L0.737498 0.0436905C0.53883 -0.0426179 0.307643 0.00132729 0.154468 0.154468C0.00132729 0.307643 -0.0426179 0.538901 0.0436905 0.737533L7.4068 17.6828C7.49082 17.8762 7.68137 18 7.8903 18C7.90025 18 7.91027 17.9997 7.92022 17.9991C8.14076 17.9867 8.33014 17.8381 8.39472 17.6269L9.97366 12.4643C10.3389 11.27 11.27 10.339 12.4643 9.9737L17.6268 8.39476C17.838 8.33014 17.9866 8.14076 17.9991 7.92026C18.0116 7.69976 17.8853 7.49483 17.6827 7.4068Z" fill="#FADF7C"/>
</g>
<defs>
<clipPath id="clip0_170_14">
<rect width="18" height="18" fill="white"/>
</clipPath>
</defs>
</svg>
